<svg width="575" height="741" viewBox="0 0 575 741" fill="none" xmlns="http://www.w3.org/2000/svg">
<g filter="url(#filter0_d_284_1143)">
<path fill-rule="evenodd" clip-rule="evenodd" d="M102.94 275.299C201.271 228.293 382.078 262.414 437.07 276.463C450.236 297.164 460.922 320.369 468.578 345.4C444.256 341.707 419.948 336.988 395.46 332.233C295.183 312.764 191.896 292.71 72.3245 340.215C79.9897 316.694 90.3516 294.862 102.94 275.299ZM57.1405 439.801C212.658 437.359 310.201 467.175 419.051 623.439C408.998 635.673 397.958 646.681 386.092 656.267C301.174 557.223 165.486 505.403 61.042 487.687C58.5912 472.171 57.2551 456.165 57.1405 439.801Z" fill="#FFB257"/>
<path fill-rule="evenodd" clip-rule="evenodd" d="M236.132 176C236.132 177.08 236.183 178.148 236.281 179.202C162.768 193.462 101.779 254.107 73.7258 336.021C165.501 259.426 241.512 227.78 370.884 207.536C350.381 193.836 327.84 184.168 303.965 179.395C304.076 178.279 304.132 177.146 304.132 176C304.132 157.222 288.91 142 270.132 142C251.355 142 236.132 157.222 236.132 176ZM461.34 324.544C331.557 309.866 218.028 341.911 57.1422 440.05C57.2686 456.326 58.6031 472.246 61.0409 487.68C253.794 448.197 354.581 446.786 467.187 534.026C476.831 504.161 482.132 471.593 482.132 437.5C482.132 397.045 474.667 358.736 461.34 324.544ZM389.574 653.393C364.405 674.609 335.337 689.333 303.965 695.605C304.076 696.721 304.132 697.854 304.132 699C304.132 717.778 288.91 733 270.132 733C251.355 733 236.132 717.778 236.132 699C236.132 697.92 236.183 696.852 236.281 695.798C165.376 682.044 106.123 625.138 76.8357 547.618C221.935 551.539 307.233 594.154 389.574 653.393Z" fill="#FFEC3E"/>
<path d="M332.097 13.8864C253.53 70.2096 242.256 112.273 276.552 138.026L332.097 13.8864Z" fill="#2DC269"/>
<path d="M332.097 13.8864C342.459 110 318.609 146.436 276.552 138.026L332.097 13.8864Z" fill="#88E78C"/>
<path d="M227.011 66.8053C220.533 121.949 234.032 143.007 258.232 138.407L227.011 66.8053Z" fill="#2DC269"/>
<path d="M227.011 66.8053C271.826 99.5841 278.071 123.804 258.232 138.407L227.011 66.8053Z" fill="#88E78C"/>
<circle r="20.5" transform="matrix(-1 0 0 1 549.632 250.5)" fill="#FFEC3E"/>
<circle r="13.5" transform="matrix(-1 0 0 1 515.632 216.5)" fill="#FFEC3E"/>
<circle r="20.5" transform="matrix(-0.817401 -0.576069 -0.576069 0.817401 28.5662 408.19)" fill="#FFEC3E"/>
<circle r="13.5" transform="matrix(-0.817401 -0.576069 -0.576069 0.817401 20.3608 360.812)" fill="#FFEC3E"/>
<circle r="20.5" transform="matrix(0.348965 -0.937136 -0.937136 -0.348965 464.855 566.4)" fill="#FFEC3E"/>
<circle r="13.5" transform="matrix(0.348965 -0.937136 -0.937136 -0.348965 508.583 546.402)" fill="#FFEC3E"/>
<circle r="9.271" transform="matrix(0.348965 -0.937136 -0.937136 -0.348965 502.257 598.801)" fill="#FFEC3E"/>
</g>
<defs>
<filter id="filter0_d_284_1143" x="2.85962" y="13.8864" width="571.273" height="727.114" filterUnits="userSpaceOnUse" color-interpolation-filters="sRGB">
<feFlood flood-opacity="0" result="BackgroundImageFix"/>
<feColorMatrix in="SourceAlpha" type="matrix" values="0 0 0 0 0 0 0 0 0 0 0 0 0 0 0 0 0 0 127 0" result="hardAlpha"/>
<feOffset dy="4"/>
<feGaussianBlur stdDeviation="2"/>
<feComposite in2="hardAlpha" operator="out"/>
<feColorMatrix type="matrix" values="0 0 0 0 0 0 0 0 0 0 0 0 0 0 0 0 0 0 0.25 0"/>
<feBlend mode="normal" in2="BackgroundImageFix" result="effect1_dropShadow_284_1143"/>
<feBlend mode="normal" in="SourceGraphic" in2="effect1_dropShadow_284_1143" result="shape"/>
</filter>
</defs>
</svg>
